<svg width="200" height="200" viewBox="0 0 200 200" fill="none" xmlns="http://www.w3.org/2000/svg">
<g clip-path="url(#clip0_204_66)">
<path d="M15.944 7.54397C1.95854 18.0486 -1.63774 41.0588 0.626572 61.818C3.02409 82.4522 11.2822 101.085 25.2677 115.217C39.2532 129.348 59.0993 138.977 76.0151 136.351C92.9309 133.725 107.183 118.718 128.361 104.712C149.539 90.5808 177.776 77.1999 177.377 64.4442C176.844 51.5635 147.674 39.183 126.363 28.6783C105.185 18.1737 91.9985 9.54486 73.218 4.29253C54.4375 -0.959803 29.9295 -2.96069 15.944 7.54397Z" fill="#22A69B"/>
<path d="M184.056 70.7608C198.041 81.2654 201.638 104.276 199.373 125.035C196.976 145.669 188.718 164.302 174.732 178.434C160.747 192.565 140.901 202.194 123.985 199.568C107.069 196.942 92.8172 181.935 71.6392 167.929C50.4611 153.798 22.2237 140.417 22.6233 127.661C23.1561 114.78 52.3259 102.4 73.6371 91.8951C94.8151 81.3905 108.001 72.7616 126.782 67.5093C145.563 62.257 170.07 60.2561 184.056 70.7608Z" fill="#EA4076"/>
</g>
<defs>
<clipPath id="clip0_204_66">
<rect width="200" height="200" fill="white"/>
</clipPath>
</defs>
</svg>
